<svg width="153" height="36" viewBox="0 0 153 36" fill="none" xmlns="http://www.w3.org/2000/svg">
    <path d="M.716 35.036V19.627h1.528l.184 2.236c.774-.857 1.528-1.46 2.262-1.807.753-.368 1.6-.551 2.536-.551.347 0 .765.03 1.254.091v1.563a18.87 18.87 0 0 0-1.437-.061c-.937 0-1.773.173-2.506.52-.713.348-1.406.91-2.079 1.685v11.733H.716zM11.291 27.623c.02 2.144.49 3.727 1.406 4.748.917 1.021 2.333 1.532 4.249 1.532 1.752 0 3.433-.358 5.043-1.072v1.44c-1.447.816-3.169 1.225-5.166 1.225-2.425 0-4.248-.684-5.47-2.053-1.223-1.389-1.835-3.441-1.835-6.157 0-2.574.612-4.565 1.834-5.974 1.243-1.43 2.975-2.144 5.196-2.144 1.855 0 3.27.53 4.249 1.593.998 1.062 1.497 2.583 1.497 4.564 0 .92-.06 1.685-.183 2.298h-10.82zm5.104-6.893c-3.22 0-4.92 1.828-5.104 5.483h9.292c.02-.285.03-.622.03-1.01 0-1.47-.356-2.584-1.07-3.34-.713-.755-1.762-1.133-3.148-1.133zM26.384 35.219c-.404 0-.738-.132-1.001-.396-.243-.263-.364-.598-.364-1.004 0-.425.121-.77.364-1.034.263-.263.597-.395 1.001-.395.405 0 .729.132.971.395.264.264.395.609.395 1.035 0 .405-.131.74-.395 1.003-.242.264-.566.396-.97.396zm0-12.836c-.404 0-.738-.131-1.001-.395-.243-.264-.364-.598-.364-1.004 0-.426.121-.77.364-1.034.263-.264.597-.395 1.001-.395.405 0 .729.131.971.395.264.264.395.608.395 1.034 0 .406-.131.74-.395 1.004-.242.264-.566.395-.97.395zM7.21 13.155l-.894-2.577H2.333l-.866 2.577H0L3.577 3.45h1.537l3.577 9.704H7.21zM2.697 9.498h3.255L4.318 4.738 2.697 9.499zM16.246 13.155l-1.83-7.605-1.845 7.605h-1.593L8.155 3.45h1.551l2.082 8.136 1.859-7.856h1.565l1.858 7.87 2.096-8.15h1.495l-2.823 9.704h-1.592zM23.605 8.547c-.764-.29-1.318-.64-1.663-1.05-.344-.41-.517-.93-.517-1.555 0-.522.13-.985.392-1.386.26-.41.633-.733 1.117-.966.494-.234 1.072-.35 1.733-.35.838 0 1.7.168 2.585.504v1.134c-.941-.29-1.77-.434-2.487-.434-.606 0-1.076.126-1.412.378-.326.243-.489.593-.489 1.05 0 .374.112.673.336.897.223.214.638.434 1.243.658l1.272.476c.754.28 1.295.62 1.62 1.022.336.392.504.901.504 1.527 0 .896-.322 1.61-.964 2.142-.634.533-1.49.799-2.571.799-1.072 0-2.003-.192-2.795-.575v-1.12c.978.327 1.9.49 2.767.49.661 0 1.178-.145 1.55-.434.383-.29.573-.681.573-1.176 0-.346-.111-.63-.335-.854-.214-.234-.582-.453-1.104-.659l-1.355-.518zM35.913 34.817V3.277h2.68v31.54h-2.68zM60.26 34.817V19.252c0-1.973-.378-3.399-1.135-4.279-.757-.91-1.968-1.365-3.633-1.365-3.027 0-5.979.97-8.855 2.913v18.296H44.05V11.924h2.27l.273 2.64a18.695 18.695 0 0 1 4.677-2.458c1.635-.576 3.224-.865 4.768-.865 2.21 0 3.89.592 5.04 1.775 1.181 1.153 1.772 2.868 1.772 5.143v16.658H60.26zM69.495 34.817V14.2h-4.45v-1.82l4.45-.41V6.734c0-2.033.53-3.58 1.59-4.642C72.145 1.031 73.657.5 75.625.5c.727 0 1.469.076 2.226.228.787.12 1.453.288 1.998.5v2.14c-1.514-.334-2.816-.501-3.906-.501-1.362 0-2.346.288-2.951.864-.606.547-.909 1.457-.909 2.731v5.462h7.539V14.2h-7.538v20.617h-2.589zM90.193 35.5c-3.33 0-5.918-1.062-7.765-3.186-1.847-2.154-2.77-5.143-2.77-8.966 0-3.823.923-6.797 2.77-8.92 1.847-2.125 4.435-3.187 7.765-3.187s5.919 1.062 7.765 3.186c1.847 2.124 2.77 5.098 2.77 8.92 0 3.824-.923 6.813-2.77 8.967-1.846 2.124-4.435 3.186-7.765 3.186zm0-2.367c5.237 0 7.856-3.262 7.856-9.785 0-6.493-2.619-9.74-7.856-9.74s-7.856 3.247-7.856 9.74c0 6.524 2.619 9.785 7.856 9.785zM104.378 34.817V11.924h2.27l.273 3.322c1.15-1.274 2.27-2.17 3.36-2.685 1.12-.546 2.376-.82 3.769-.82.515 0 1.135.046 1.862.137V14.2a28.002 28.002 0 0 0-2.134-.091c-1.393 0-2.634.258-3.724.773-1.06.516-2.089 1.35-3.088 2.504v17.431h-2.588zM132.486 34.044c-1.877.85-3.769 1.274-5.676 1.274-3.512 0-6.176-1.001-7.993-3.004-1.816-2.033-2.724-5.006-2.724-8.92 0-3.884.923-6.843 2.77-8.876 1.847-2.063 4.526-3.095 8.038-3.095 1.877 0 3.648.364 5.313 1.093v2.139a16.507 16.507 0 0 0-5.177-.82c-2.876 0-4.965.744-6.267 2.23-1.271 1.457-1.907 3.809-1.907 7.055v.546c0 3.156.651 5.492 1.953 7.01 1.301 1.486 3.345 2.23 6.13 2.23 1.665 0 3.512-.334 5.54-1.002v2.14zM136.057 23.803c.03 3.186.727 5.537 2.089 7.055 1.362 1.517 3.466 2.275 6.312 2.275 2.604 0 5.101-.53 7.493-1.593v2.14c-2.149 1.213-4.708 1.82-7.674 1.82-3.603 0-6.313-1.017-8.129-3.05-1.816-2.063-2.725-5.112-2.725-9.148 0-3.823.909-6.781 2.725-8.875 1.847-2.124 4.42-3.186 7.72-3.186 2.755 0 4.859.79 6.312 2.367 1.483 1.578 2.225 3.838 2.225 6.782 0 1.365-.091 2.503-.272 3.413h-16.076zm7.584-10.24c-4.783 0-7.311 2.715-7.584 8.146h13.805c.03-.424.045-.925.045-1.502 0-2.184-.529-3.838-1.589-4.96-1.059-1.123-2.619-1.685-4.677-1.685z" fill="#000"/>
</svg>
