<svg width="256" height="256" viewBox="0 0 256 256" fill="none" xmlns="http://www.w3.org/2000/svg">
<g clip-path="url(#clip0_667_2710)">
<g clip-path="url(#clip1_667_2710)">
<mask id="mask0_667_2710" style="mask-type:luminance" maskUnits="userSpaceOnUse" x="1" y="99" width="254" height="57">
<path d="M255 99H1V156H255V99Z" fill="white"/>
</mask>
<g mask="url(#mask0_667_2710)">
<path fill-rule="evenodd" clip-rule="evenodd" d="M230.591 124.677C202.774 145.127 162.461 156 127.754 156C79.1 156 35.2744 138.082 2.12119 108.249C-0.479644 105.911 1.83719 102.709 4.97613 104.526C40.7451 125.273 84.9892 137.755 130.668 137.755C161.49 137.755 195.36 131.38 226.54 118.199C231.234 116.218 235.18 121.282 230.576 124.677H230.591Z" fill="#F99C24"/>
<path fill-rule="evenodd" clip-rule="evenodd" d="M242.16 111.511C238.603 106.968 218.648 109.366 209.68 110.439C206.959 110.766 206.541 108.398 208.992 106.685C224.911 95.5445 250.994 98.7617 254.029 102.485C257.078 106.253 253.221 132.303 238.319 144.74C236.017 146.646 233.835 145.634 234.851 143.102C238.214 134.746 245.718 116.054 242.16 111.511Z" fill="#F99C24"/>
</g>
</g>
</g>
<defs>
<clipPath id="clip0_667_2710">
<rect width="256" height="256" fill="white"/>
</clipPath>
<clipPath id="clip1_667_2710">
<rect width="254" height="57" fill="white" transform="translate(1 99)"/>
</clipPath>
</defs>
</svg>
